# Blender v2.91.0 OBJ File: 'pyramids.blend'
# www.blender.org
mtllib pyramid2.mtl
o pyramid2_1
v 12.516672 0.413070 -63.823128
v -10.274212 0.413070 -63.823128
v -10.274212 0.413070 -41.032238
v 0.182891 4.001863 -43.958973
v 1.121230 14.386290 -52.427685
v 12.516672 0.413070 -41.032238
v 1.076650 4.001863 -43.958973
v 0.182891 3.063161 -43.193443
v 1.076650 3.063161 -43.193443
v 1.368546 0.413070 -41.032238
v 0.070539 0.413070 -41.032238
vt 1.000000 1.000000
vt 0.500000 0.500000
vt 1.000000 0.000000
vt 0.000000 1.000000
vt 0.000000 0.000000
vt 0.498044 0.128417
vt 0.458828 0.094828
vt 0.458828 0.128417
vt 0.498044 0.094828
vt 0.453899 0.000000
vt 0.510852 0.000000
vn 0.7750 0.6320 0.0000
vn 0.0000 0.6320 -0.7750
vn -0.7750 0.6320 0.0000
vn -0.0000 0.6320 0.7750
usemtl pyramid2_1
s off
f 1/1/1 5/2/1 6/3/1
f 5/2/2 1/1/2 2/4/2
f 2/4/3 3/5/3 5/2/3
f 7/6/4 6/3/4 5/2/4
f 3/5/4 8/7/4 4/8/4
f 5/2/4 4/8/4 7/6/4
f 5/2/4 3/5/4 4/8/4
f 9/9/4 8/7/4 11/10/4
f 9/9/4 11/10/4 10/11/4
f 6/3/4 7/6/4 9/9/4
f 9/9/4 10/11/4 6/3/4
f 11/10/4 8/7/4 3/5/4
o pyramid2_2
v -11.413756 0.413070 -64.962669
v -11.413756 0.000000 -39.892693
v -11.413756 0.413070 -39.892693
v -11.413756 0.000000 -64.962669
v -10.274212 0.413070 -63.823124
v -10.274212 0.413070 -41.032234
v -0.477764 0.000000 -38.580509
v -0.477764 0.413070 -39.892693
v -0.477764 0.000000 -39.892693
v 0.321732 0.000000 -38.580509
v 0.321732 0.000000 -37.438736
v 1.920728 0.000000 -37.438736
v 1.920728 0.413070 -38.580509
v 1.920728 0.000000 -38.580509
v 2.720224 0.000000 -39.892693
v 2.720224 0.413070 -38.580509
v 2.720224 0.000000 -38.580509
v 13.656217 0.000000 -39.892693
v 13.656217 0.000000 -64.962669
v 13.656217 0.413070 -64.962669
v 12.516673 0.413070 -63.823124
v 13.656217 0.413070 -39.892693
v 12.516673 0.413070 -41.032234
v 2.720224 0.413070 -39.892693
v 0.321732 0.413070 -38.580509
v -0.477764 0.413070 -38.580509
v 0.182890 4.001864 -43.958973
v 1.076649 4.001864 -43.958973
v 1.076649 4.001864 -47.923565
v 0.182889 4.001864 -47.923565
v 0.182890 3.063162 -43.193439
v 0.182889 3.063162 -47.923565
v 1.076649 3.063162 -47.923565
v 1.076649 3.063162 -43.193439
vt 0.969432 0.253489
vt 0.022052 0.282704
vt 0.022036 0.253490
vt 0.969447 0.282703
vt 0.015334 0.384431
vt 0.977831 0.401362
vt 0.015317 0.401362
vt 0.977847 0.384431
vt -0.007352 0.162518
vt 0.038063 0.117102
vt 0.991796 0.162518
vt 0.954156 0.000426
vt 0.999572 0.045842
vt 0.045842 0.000426
vt 0.000426 0.045842
vt 0.038063 0.208786
vt -0.007352 0.163370
vt 0.428493 0.163370
vt 0.016603 0.329672
vt 0.965427 0.365787
vt 0.016603 0.365787
vt 0.965427 0.329671
vt 0.746795 0.832897
vt 0.956268 0.766956
vt 0.956268 0.832897
vt 0.746795 0.766956
vt 0.619166 0.766956
vt 0.619166 0.832897
vt 0.436896 0.832897
vt 0.336652 0.503991
vt 0.183949 0.619946
vt 0.183949 0.503991
vt 0.336652 0.619946
vt 0.619166 0.899579
vt 0.436896 0.833638
vt 0.619166 0.833638
vt 0.746796 0.899579
vt 0.746796 0.833638
vt 0.956269 0.833638
vt 0.956269 0.899579
vt 0.016603 0.292813
vt 0.965447 0.328926
vt 0.016603 0.328928
vt 0.965447 0.292811
vt 0.969432 0.223283
vt 0.022053 0.252604
vt 0.022036 0.223390
vt 0.969448 0.252497
vt 0.999574 0.046694
vt 0.954158 0.092110
vt 0.000426 0.046694
vt 0.946380 0.117103
vt 0.045842 0.092110
vt 0.946377 0.208786
vt 0.555950 0.163370
vt 0.991793 0.163370
vt 0.107597 0.745259
vt 0.413003 0.745259
vt 0.107597 0.619946
vt 0.413003 0.619946
vt 0.412292 0.825311
vt 0.021946 0.899067
vt 0.021946 0.825311
vt 0.088200 0.822580
vt 0.010735 0.748824
vt 0.088200 0.748824
vt 0.412292 0.899067
vt 0.415371 0.748824
vt 0.415371 0.822580
vt 0.521015 0.746493
vt 0.956176 0.643458
vt 0.956176 0.746493
vt 0.521015 0.539499
vt 0.956176 0.642533
vt 0.436989 0.642533
vt 0.010735 0.822580
vt 0.436989 0.643459
vt 0.956176 0.539499
vn -1.0000 0.0000 0.0000
vn 0.0000 0.0000 -1.0000
vn 0.0000 1.0000 0.0000
vn 0.0000 0.0000 1.0000
vn 0.0000 0.9404 0.3402
vn 1.0000 0.0000 0.0000
vn 0.0000 -1.0000 0.0000
usemtl pyramid2_2
s off
f 12/12/5 13/13/5 14/14/5
f 13/13/5 12/12/5 15/15/5
f 12/16/6 30/17/6 15/18/6
f 30/17/6 12/16/6 31/19/6
f 12/20/7 16/21/7 31/22/7
f 16/23/7 12/24/7 17/25/7
f 14/26/7 17/25/7 12/24/7
f 17/27/7 14/28/7 19/29/7
f 13/30/8 19/31/8 14/32/8
f 19/31/8 13/30/8 20/33/8
f 18/34/5 19/35/5 20/36/5
f 19/35/5 18/34/5 37/37/5
f 18/34/8 36/38/8 37/37/8
f 36/38/8 18/34/8 21/39/8
f 21/39/5 22/40/5 36/38/5
f 23/41/9 36/42/9 22/43/9
f 36/42/9 23/41/9 24/44/9
f 24/45/10 23/46/10 25/47/10
f 25/47/8 27/48/8 24/45/8
f 27/48/8 25/47/8 28/49/8
f 26/50/10 27/48/10 28/49/10
f 27/48/10 26/50/10 35/51/10
f 26/52/8 33/53/8 35/54/8
f 33/53/8 26/52/8 29/55/8
f 30/56/10 33/57/10 29/58/10
f 33/57/10 30/56/10 31/59/10
f 31/60/7 32/61/7 33/62/7
f 31/22/7 16/21/7 32/63/7
f 34/64/7 33/62/7 32/61/7
f 34/65/7 35/66/7 33/67/7
f 34/65/7 19/29/7 35/66/7
f 17/27/7 19/29/7 34/65/7
f 19/68/7 36/42/7 35/69/7
f 36/42/7 19/68/7 37/70/7
f 35/69/7 36/42/7 24/44/7
f 35/69/7 24/44/7 27/71/7
f 44/72/7 42/73/7 45/74/7
f 41/75/8 44/76/8 40/77/8
f 44/72/7 43/78/7 42/73/7
f 41/75/11 39/79/11 38/80/11
f 38/81/10 43/82/10 41/83/10
f 39/84/5 44/85/5 45/86/5
f 41/75/8 43/87/8 44/76/8
f 41/75/11 40/77/11 39/79/11
f 38/81/10 42/88/10 43/82/10
f 39/84/5 40/89/5 44/85/5
