# Blender v2.91.0 OBJ File: 'Obelisk+mini pyramids.blend'
# www.blender.org
mtllib obelisk.mtl
o Obelisk
v 0.482990 1.830798 -0.482991
v -0.482992 1.830798 0.482991
v 0.482990 0.956235 0.482991
v 0.482990 1.830798 0.482991
v -0.233321 12.157887 0.233319
v 0.233317 12.157887 0.233319
v -0.000002 13.219529 -0.000000
v 0.233317 12.157887 -0.233320
v -0.482992 1.830798 -0.482991
v -0.482992 0.956235 -0.482991
v 0.482990 0.956235 -0.482991
v -0.482992 0.956235 0.482991
v -0.233321 12.157887 -0.233320
v 1.654117 -0.000001 -1.654118
v 1.320801 -0.000001 1.320804
v 1.654117 -0.000001 1.654118
v -1.654119 -0.000001 -1.654118
v -1.320805 -0.000001 -1.320804
v 1.320801 -0.000001 -1.320804
v -1.212821 -0.000001 -1.212821
v 1.212821 -0.000001 -1.212821
v -1.212821 -0.000001 1.212820
v -0.711346 -0.000001 0.711345
v 0.711344 -0.000001 0.711345
v -1.320805 -0.000001 1.320804
v 1.212821 -0.000001 1.212820
v -1.654119 -0.000001 1.654118
v -0.629395 0.140171 0.629397
v -0.629395 0.094601 0.629397
v -0.711345 -0.000001 -0.711346
v 0.629398 0.094601 -0.629397
v -0.629395 0.094601 -0.629397
v 0.629398 0.140171 -0.629397
v -0.555162 0.140171 -0.555161
v 0.445008 0.250325 -0.555161
v -0.555162 0.815850 -0.555161
v -0.445006 0.250325 -0.555161
v -0.445006 0.250325 -0.475047
v -0.445006 0.705695 -0.475047
v -0.445006 0.705695 -0.555161
v 0.445008 0.705695 -0.475047
v 0.445008 0.705695 -0.555161
v 0.555162 0.815850 -0.555161
v -0.569740 0.815850 -0.569739
v -0.555162 0.815850 0.555162
v -0.569740 0.815850 0.569739
v 0.555162 0.815850 0.555162
v -0.555162 0.250325 0.445008
v -0.555162 0.705695 0.445008
v -0.555162 0.705695 -0.445007
v -0.475047 0.705695 0.445008
v -0.475047 0.705695 -0.445007
v -0.475047 0.250325 -0.445007
v -0.555162 0.250325 -0.445007
v -0.555162 0.140171 0.555162
v -0.629395 0.140171 -0.629397
v 0.555162 0.140171 0.555162
v 0.629398 0.140171 0.629397
v 0.629398 0.094601 0.629397
v 0.711345 -0.000001 -0.711346
v 0.555162 0.140171 -0.555161
v 0.555162 0.250325 0.445008
v 0.555162 0.250325 -0.445007
v 0.475047 0.250325 0.445008
v 0.475047 0.705695 -0.445007
v 0.475047 0.250325 -0.445007
v 0.555162 0.705695 -0.445007
v 0.555162 0.705695 0.445008
v 0.569740 0.815850 0.569739
v 0.569740 0.862154 -0.569739
v -0.569740 0.862154 -0.569739
v -0.569740 0.862154 0.569739
v 0.673496 0.922424 0.673497
v -0.673496 0.922424 0.673497
v 0.673496 0.922424 -0.673497
v -0.709512 0.922424 -0.709512
v 0.709512 0.922424 -0.709512
v -0.709512 0.956234 -0.709512
v 0.709512 0.956234 -0.709512
v -0.709512 0.922424 0.709512
v -0.709512 0.956234 0.709512
v 0.709512 0.956234 0.709512
v 0.709512 0.922424 0.709512
v -0.673496 0.922424 -0.673497
v 0.569740 0.862154 0.569739
v 0.569740 0.815850 -0.569739
v 0.475047 0.705695 0.445008
v 0.445008 0.250325 0.555162
v 0.445008 0.705695 0.555162
v 0.445008 0.705695 0.475047
v 0.445008 0.250325 0.475047
v -0.445006 0.705695 0.555162
v -0.445006 0.705695 0.475047
v -0.445006 0.250325 0.475047
v -0.445006 0.250325 0.555162
v -0.475047 0.250325 0.445008
v 0.445008 0.250325 -0.475047
vt 0.372591 0.347075
vt 0.256666 0.367471
vt 0.256666 0.347076
vt 0.717090 0.770402
vt 0.858477 0.807250
vt 0.753938 0.807250
vt 0.049026 0.253384
vt 0.043657 0.248006
vt 0.352083 0.253239
vt 0.287711 0.784230
vt 0.477968 0.784230
vt 0.382839 0.879359
vt 0.477968 0.974487
vt 0.030090 0.347076
vt 0.030090 0.367471
vt 0.236914 0.036937
vt 0.260938 0.012913
vt 0.260938 0.160271
vt 0.621953 0.212637
vt 0.884648 0.205640
vt 0.884648 0.212637
vt 0.621952 0.255680
vt 0.884647 0.248683
vt 0.884647 0.255680
vt 0.372590 0.387867
vt 0.256665 0.367471
vt 0.372590 0.367471
vt 0.287711 0.974487
vt 0.903259 0.762467
vt 0.709155 0.762467
vt 0.684663 0.737975
vt 0.536715 0.132216
vt 0.713776 0.041624
vt 0.713776 0.132216
vt 0.505425 0.338407
vt 0.746317 0.319296
vt 0.746317 0.338406
vt 0.479063 0.136248
vt 0.503087 0.012913
vt 0.503087 0.160271
vt 0.030090 0.428657
vt 0.256663 0.408262
vt 0.256663 0.428657
vt 0.372591 0.408262
vt 0.488516 0.387867
vt 0.488516 0.408262
vt 0.023655 0.293120
vt 0.217084 0.319294
vt 0.023655 0.319294
vt 0.294819 0.041014
vt 0.471849 0.131667
vt 0.294788 0.131606
vt 0.096889 0.695281
vt 0.024698 0.781558
vt 0.021505 0.697290
vt 0.599164 0.367472
vt 0.715089 0.428657
vt 0.599162 0.408262
vt 0.715089 0.408262
vt 0.030090 0.408262
vt 0.146015 0.387867
vt 0.146015 0.408262
vt 0.884647 0.234158
vt 0.621952 0.227162
vt 0.884647 0.227162
vt 0.410257 0.233048
vt 0.575076 0.248404
vt 0.394834 0.248470
vt 0.717090 0.948636
vt 0.903259 0.956571
vt 0.709156 0.956571
vt 0.023655 0.338411
vt 0.264554 0.319296
vt 0.264554 0.338408
vt 0.559773 0.259296
vt 0.395408 0.274436
vt 0.410934 0.258482
vt 0.577769 0.210633
vt 0.413340 0.226163
vt 0.397308 0.210591
vt 0.684664 0.981063
vt 0.715088 0.387867
vt 0.599164 0.387867
vt 0.715091 0.408262
vt 0.715091 0.387867
vt 0.858476 0.911788
vt 0.895324 0.948636
vt 0.901749 0.212637
vt 0.604851 0.212637
vt 0.777840 0.041366
vt 0.954900 0.131957
vt 0.777840 0.131957
vt 0.730793 0.347817
vt 0.950604 0.361593
vt 0.744568 0.361593
vt 0.372591 0.387867
vt 0.951149 0.369877
vt 0.964924 0.383652
vt 0.731345 0.383652
vt 0.410520 0.293122
vt 0.217084 0.293121
vt 0.715092 0.347076
vt 0.599167 0.367471
vt 0.599167 0.347076
vt 0.577757 0.184098
vt 0.413711 0.200364
vt 0.397757 0.184838
vt 0.983245 0.572430
vt 0.101121 0.447118
vt 0.986129 0.532383
vt 0.236914 0.136248
vt 0.018789 0.160271
vt 0.580012 0.279539
vt 0.390726 0.279128
vt 0.575195 0.274719
vt 0.284961 0.036937
vt 0.987181 0.338406
vt 0.987181 0.319296
vt 0.050572 0.041479
vt 0.227632 0.132070
vt 0.050572 0.132070
vt 0.372588 0.428657
vt 0.372588 0.408262
vt 0.024730 0.443845
vt 0.096915 0.530189
vt 0.021515 0.528157
vt 0.505425 0.319296
vt 0.372591 0.367471
vt 0.604851 0.234158
vt 0.621952 0.248683
vt 0.621952 0.274897
vt 0.901749 0.255680
vt 0.884647 0.274897
vt 0.603944 0.319295
vt 0.410520 0.319296
vt 0.758310 0.812602
vt 0.853813 0.908105
vt 0.758310 0.908105
vt 0.986129 0.693476
vt 0.101055 0.778307
vt 0.020054 0.612728
vt 0.095838 0.612737
vt 0.982275 0.612801
vt 0.987385 0.160271
vt 0.769260 0.136248
vt 0.963362 0.136248
vt 0.582515 0.205844
vt 0.392507 0.205844
vt 0.745236 0.012913
vt 0.987385 0.012913
vt 0.769260 0.036937
vt 0.030090 0.387867
vt 0.030090 0.367471
vt 0.527111 0.036937
vt 0.721213 0.036937
vt 0.797375 0.293122
vt 0.603944 0.293122
vt 0.527111 0.136248
vt 0.721213 0.136248
vt 0.745236 0.160271
vt 0.599162 0.428657
vt 0.360117 0.211602
vt 0.354719 0.216988
vt 0.045802 0.211735
vt 0.884647 0.280185
vt 0.621952 0.280185
vt 0.983240 0.653171
vt 0.901749 0.191116
vt 0.621953 0.205640
vt 0.604851 0.191116
vt 0.042812 0.036937
vt 0.895325 0.770402
vt 0.045770 0.267382
vt 0.349225 0.268120
vt 0.040392 0.272750
vt 0.354623 0.273527
vt 0.357475 0.247859
vt 0.256665 0.387867
vt 0.927751 0.737975
vt 0.927751 0.981063
vt 0.536715 0.041624
vt 0.479063 0.036937
vt 0.284961 0.136248
vt 0.030090 0.408262
vt 0.471880 0.041076
vt 0.030090 0.387867
vt 0.621952 0.234158
vt 0.558885 0.232222
vt 0.023655 0.319300
vt 0.561587 0.226823
vt 0.715088 0.367472
vt 0.753938 0.911788
vt 0.954900 0.041366
vt 0.964379 0.347817
vt 0.950604 0.405719
vt 0.730792 0.391944
vt 0.964379 0.391944
vt 0.745117 0.414008
vt 0.951149 0.414008
vt 0.731343 0.427783
vt 0.964925 0.427783
vt 0.744567 0.405720
vt 0.745120 0.369877
vt 0.715092 0.367471
vt 0.562186 0.200131
vt 0.018789 0.012913
vt 0.042812 0.136248
vt 0.393065 0.180156
vt 0.582504 0.179297
vt 0.579865 0.253150
vt 0.390015 0.253287
vt 0.227632 0.041479
vt 0.901749 0.234158
vt 0.604851 0.255680
vt 0.853813 0.812602
vt 0.963362 0.036937
vt 0.797375 0.319294
vt 0.357608 0.234365
vt 0.042881 0.234427
vt 0.048287 0.229030
vt 0.051181 0.217127
vt 0.352222 0.228967
vn 1.0000 0.0000 0.0000
vn 0.0000 1.0000 0.0000
vn 0.0000 -1.0000 0.0000
vn 0.0000 0.2146 0.9767
vn 0.9767 0.2146 0.0000
vn 0.0000 0.0000 -1.0000
vn 0.0000 0.0000 1.0000
vn 0.0000 0.2146 -0.9767
vn -0.9767 0.2146 0.0000
vn -1.0000 0.0000 0.0000
vn 0.0000 -0.8647 -0.5023
vn 0.5023 -0.8647 0.0000
vn -0.5023 -0.8647 0.0000
vn 0.7559 0.6547 0.0000
vn 0.0000 -0.8647 0.5023
vn 0.0000 0.0242 0.9997
vn 0.0000 0.6548 -0.7558
vn -0.7558 0.6548 0.0000
vn 0.9997 0.0242 0.0000
vn -0.9997 0.0242 0.0000
vn 0.0000 0.0242 -0.9997
vn 0.0000 0.6548 0.7558
usemtl Obelisk
s off
f 93/1/1 95/2/1 94/3/1
f 22/4/2 24/5/2 23/6/2
f 47/7/3 69/8/3 45/9/3
f 5/10/4 6/11/4 7/12/4
f 7/12/5 6/11/5 8/13/5
f 91/14/2 95/2/2 88/15/2
f 37/16/6 34/17/6 36/18/6
f 28/19/7 59/20/7 58/21/7
f 33/22/6 32/23/6 56/24/6
f 68/25/6 64/26/6 87/27/6
f 8/13/8 13/28/8 7/12/8
f 5/10/9 7/12/9 13/28/9
f 15/29/2 25/30/2 27/31/2
f 38/32/6 41/33/6 97/34/6
f 81/35/7 83/36/7 82/37/7
f 49/38/10 55/39/10 45/40/10
f 53/41/2 48/42/2 96/43/2
f 22/4/2 25/30/2 15/29/2
f 38/44/1 40/45/1 39/46/1
f 70/47/1 69/48/1 86/49/1
f 51/50/10 53/51/10 96/52/10
f 1/53/1 3/54/1 11/55/1
f 65/56/3 68/25/3 87/27/3
f 53/57/7 50/58/7 54/59/7
f 41/60/10 35/61/10 97/62/10
f 33/63/1 59/64/1 31/65/1
f 70/66/11 84/67/11 75/68/11
f 20/69/2 19/70/2 18/71/2
f 79/72/6 76/73/6 78/74/6
f 70/75/12 73/76/12 85/77/12
f 84/78/13 72/79/13 74/80/13
f 19/70/2 17/81/2 18/71/2
f 65/56/7 63/82/7 67/83/7
f 41/84/3 40/45/3 42/85/3
f 60/86/2 21/87/2 20/69/2
f 60/88/14 59/64/14 24/89/14
f 94/90/7 90/91/7 93/92/7
f 58/93/2 61/94/2 57/95/2
f 38/44/2 35/61/2 37/96/2
f 34/97/2 56/98/2 28/99/2
f 72/100/7 69/48/7 85/101/7
f 91/102/10 89/103/10 90/104/10
f 74/105/15 85/106/15 73/107/15
f 5/108/16 4/109/16 6/110/16
f 40/111/6 36/18/6 43/112/6
f 77/113/3 83/114/3 75/115/3
f 34/17/10 54/116/10 36/18/10
f 79/117/1 83/36/1 77/118/1
f 64/119/1 65/120/1 87/121/1
f 51/122/6 48/42/6 49/123/6
f 3/124/7 2/125/7 12/126/7
f 81/35/10 76/73/10 80/127/10
f 93/1/3 89/103/3 92/128/3
f 60/129/17 32/23/17 31/130/17
f 32/131/18 23/132/18 29/133/18
f 72/100/10 44/134/10 46/135/10
f 81/136/2 79/137/2 78/138/2
f 1/53/19 6/139/19 4/140/19
f 10/141/6 1/53/6 11/55/6
f 9/142/20 5/108/20 13/143/20
f 43/144/1 68/145/1 67/146/1
f 76/147/3 84/78/3 80/148/3
f 57/149/1 61/150/1 62/151/1
f 64/26/2 63/152/2 66/153/2
f 95/154/7 57/149/7 88/155/7
f 70/156/6 44/134/6 71/157/6
f 2/125/10 10/141/10 12/126/10
f 92/158/7 89/159/7 47/160/7
f 51/122/3 50/58/3 52/161/3
f 44/162/3 36/163/3 46/164/3
f 32/131/10 28/165/10 56/166/10
f 8/167/21 9/142/21 13/143/21
f 24/168/22 29/169/22 23/170/22
f 37/16/6 35/171/6 34/17/6
f 93/1/1 92/128/1 95/2/1
f 22/4/2 26/172/2 24/5/2
f 47/173/3 43/174/3 69/175/3
f 43/174/3 86/176/3 69/175/3
f 69/8/3 46/177/3 45/9/3
f 91/14/2 94/3/2 95/2/2
f 28/19/7 29/169/7 59/20/7
f 33/22/6 31/130/6 32/23/6
f 68/25/6 62/178/6 64/26/6
f 25/30/2 18/71/2 17/81/2
f 16/179/2 14/180/2 19/70/2
f 16/179/2 19/70/2 15/29/2
f 25/30/2 17/81/2 27/31/2
f 16/179/2 15/29/2 27/31/2
f 38/32/6 39/181/6 41/33/6
f 81/35/7 80/127/7 83/36/7
f 49/38/10 48/182/10 55/39/10
f 45/40/10 36/18/10 49/38/10
f 36/18/10 50/183/10 49/38/10
f 53/41/2 54/184/2 48/42/2
f 15/29/2 19/70/2 21/87/2
f 15/29/2 21/87/2 26/172/2
f 20/69/2 18/71/2 25/30/2
f 15/29/2 26/172/2 22/4/2
f 22/4/2 20/69/2 25/30/2
f 38/44/1 37/96/1 40/45/1
f 70/47/1 85/101/1 69/48/1
f 51/50/10 52/185/10 53/51/10
f 1/53/1 4/140/1 3/54/1
f 65/56/3 67/83/3 68/25/3
f 53/57/7 52/161/7 50/58/7
f 41/60/10 42/186/10 35/61/10
f 33/63/1 58/187/1 59/64/1
f 70/66/11 71/188/11 84/67/11
f 20/69/2 21/87/2 19/70/2
f 79/72/6 77/189/6 76/73/6
f 70/75/12 75/115/12 73/76/12
f 84/78/13 71/190/13 72/79/13
f 19/70/2 14/180/2 17/81/2
f 65/56/7 66/191/7 63/82/7
f 41/84/3 39/46/3 40/45/3
f 60/86/2 24/5/2 26/172/2
f 20/69/2 22/4/2 23/6/2
f 20/69/2 23/6/2 30/192/2
f 60/86/2 26/172/2 21/87/2
f 20/69/2 30/192/2 60/86/2
f 60/88/14 31/65/14 59/64/14
f 94/90/7 91/193/7 90/91/7
f 58/93/2 33/194/2 61/94/2
f 57/195/2 28/196/2 58/197/2
f 38/44/2 97/62/2 35/61/2
f 34/198/2 61/199/2 56/200/2
f 61/199/2 33/201/2 56/200/2
f 28/196/2 57/195/2 55/202/2
f 28/99/2 55/203/2 34/97/2
f 72/100/7 46/135/7 69/48/7
f 91/102/10 88/204/10 89/103/10
f 74/105/15 72/205/15 85/106/15
f 5/108/16 2/125/16 4/109/16
f 61/206/6 34/17/6 35/171/6
f 61/206/6 35/171/6 42/207/6
f 40/111/6 37/16/6 36/18/6
f 43/112/6 61/206/6 42/207/6
f 42/207/6 40/111/6 43/112/6
f 83/208/3 80/209/3 74/105/3
f 83/208/3 74/105/3 73/107/3
f 75/68/3 76/210/3 77/211/3
f 83/114/3 73/76/3 75/115/3
f 34/17/10 55/39/10 48/182/10
f 54/116/10 50/183/10 36/18/10
f 34/17/10 48/182/10 54/116/10
f 79/117/1 82/37/1 83/36/1
f 64/119/1 66/212/1 65/120/1
f 51/122/6 96/43/6 48/42/6
f 3/124/7 4/109/7 2/125/7
f 81/35/10 78/74/10 76/73/10
f 93/1/3 90/104/3 89/103/3
f 60/129/17 30/213/17 32/23/17
f 32/131/18 30/214/18 23/132/18
f 72/100/10 71/157/10 44/134/10
f 81/136/2 82/215/2 79/137/2
f 1/53/19 8/167/19 6/139/19
f 10/141/6 9/142/6 1/53/6
f 9/142/20 2/125/20 5/108/20
f 43/144/1 47/160/1 68/145/1
f 76/210/3 75/68/3 84/67/3
f 84/78/3 74/80/3 80/148/3
f 61/150/1 43/144/1 67/146/1
f 61/150/1 67/146/1 63/216/1
f 68/145/1 47/160/1 57/149/1
f 61/150/1 63/216/1 62/151/1
f 62/151/1 68/145/1 57/149/1
f 64/26/2 62/178/2 63/152/2
f 95/154/7 55/39/7 57/149/7
f 70/156/6 86/217/6 44/134/6
f 2/125/10 9/142/10 10/141/10
f 89/159/7 88/155/7 57/149/7
f 45/40/7 55/39/7 95/154/7
f 45/40/7 95/154/7 92/158/7
f 89/159/7 57/149/7 47/160/7
f 45/40/7 92/158/7 47/160/7
f 51/122/3 49/123/3 50/58/3
f 44/218/3 86/219/3 43/220/3
f 36/163/3 45/221/3 46/164/3
f 44/218/3 43/220/3 36/222/3
f 32/131/10 29/133/10 28/165/10
f 8/167/21 1/53/21 9/142/21
f 24/168/22 59/20/22 29/169/22
